<svg id='signature_24' width='24' height='24' viewBox='0 0 24 24' xmlns='http://www.w3.org/2000/svg' xmlns:xlink='http://www.w3.org/1999/xlink'><rect width='24' height='24' stroke='none' fill='#000000' opacity='0'/>


<g transform="matrix(1 0 0 1 12 12)" >
<g style="" >
<g transform="matrix(1 0 0 1 0 0)" >
<path style="stroke: none; stroke-width: 2; stroke-dasharray: none; stroke-linecap: round; stroke-dashoffset: 0; stroke-linejoin: round; stroke-miterlimit: 4; fill: none; fill-rule: nonzero; opacity: 1;" transform=" translate(-12, -12)" d="M 0 0 L 24 0 L 24 24 L 0 24 z" stroke-linecap="round" />
</g>
<g transform="matrix(1 0 0 1 0 -0.5)" >
<path style="stroke: rgb(33,33,33); stroke-width: 2; stroke-dasharray: none; stroke-linecap: round; stroke-dashoffset: 0; stroke-linejoin: round; stroke-miterlimit: 4; fill: none; fill-rule: nonzero; opacity: 1;" transform=" translate(-12, -11.5)" d="M 3 17 C 6.333 13.667 8 11 8 9 C 8 6 7 6 6 6 C 5 6 3.968 7.085 4 9 C 4.034 11.048 5.6579999999999995 13.876999999999999 6.5 15 C 8 17 9 17.5 10 16 L 12 13 C 12.333 15.667 13.333 17 15 17 C 15.53 17 17.639 15 18 15 C 18.517 15 19.517 15.667 21 17" stroke-linecap="round" />
</g>
</g>
</g>
</svg>
